<svg width="672" height="625" viewBox="0 0 672 625" fill="none" xmlns="http://www.w3.org/2000/svg">
<path d="M98.4031 537.279C102.028 537.077 109.192 533.25 109.192 533.235C109.192 533.221 105.234 529.278 104.96 529.062C101.682 526.549 93.8682 523.588 90.0554 526.173C89.435 526.626 88.9169 527.204 88.5348 527.871C88.1526 528.537 87.915 529.276 87.8374 530.041C87.7597 530.805 87.8438 531.577 88.0841 532.306C88.3244 533.036 88.7156 533.707 89.2322 534.275C91.3552 536.803 95.3269 537.452 98.4031 537.279Z" fill="#263238"/>
<path d="M172.521 501.809C172.608 501.809 171.409 496.321 171.294 496.032C169.95 492.118 165.069 485.344 160.447 485.431C159.679 485.467 158.927 485.663 158.24 486.009C157.554 486.354 156.947 486.841 156.461 487.436C155.974 488.031 155.619 488.723 155.417 489.465C155.216 490.207 155.173 490.983 155.291 491.742C155.667 494.977 158.642 497.707 161.299 499.267C164.433 501.043 172.521 501.809 172.521 501.809Z" fill="#263238"/>
<path d="M102.245 516.887V516.8C102.678 518.056 103.155 519.385 103.689 520.829C104.714 523.487 105.899 526.476 107.415 529.654C109.004 533.087 110.793 536.424 112.773 539.648C114.975 543.276 117.492 546.703 120.298 549.887L120.399 549.988C119.229 549.295 115.907 547.475 115.647 547.36C111.82 545.786 103.516 545.006 100.526 548.544C100.045 549.144 99.6966 549.838 99.5027 550.582C99.3088 551.325 99.2741 552.102 99.4009 552.86C99.5277 553.618 99.8131 554.34 100.238 554.98C100.664 555.621 101.219 556.164 101.869 556.574C104.57 558.423 108.57 558.018 111.488 557.007C114.795 555.895 120.312 550.754 120.745 550.349C123.686 553.508 126.832 556.471 130.162 559.217C132.097 560.82 134.09 562.394 136.112 563.925C135.087 563.362 134.162 562.871 134.018 562.813C130.205 561.239 121.886 560.459 118.911 563.997C118.43 564.597 118.082 565.291 117.888 566.035C117.694 566.779 117.659 567.555 117.786 568.313C117.913 569.071 118.198 569.794 118.624 570.434C119.049 571.074 119.605 571.617 120.254 572.027C122.941 573.876 126.941 573.472 129.873 572.461C132.805 571.45 137.643 567.175 138.885 566.019L141.225 567.767C144.994 570.554 148.749 573.313 152.36 576.129C153.63 577.126 154.844 578.151 156.071 579.176C155.161 578.671 154.381 578.252 154.252 578.209C150.439 576.635 142.12 575.855 139.145 579.393C138.664 579.993 138.315 580.687 138.122 581.431C137.928 582.174 137.893 582.951 138.02 583.709C138.147 584.467 138.432 585.189 138.857 585.829C139.283 586.469 139.838 587.012 140.488 587.423C143.189 589.272 147.175 588.867 150.107 587.856C153.038 586.845 157.4 582.975 158.902 581.617C160.115 582.7 161.343 583.783 162.469 584.896C163.22 585.661 164.015 586.34 164.722 587.177L166.874 589.532C168.188 591.077 169.56 592.666 170.802 594.211C171.683 595.28 172.492 596.319 173.315 597.359C172.059 596.348 169.56 594.471 169.344 594.298C165.791 592.174 157.703 590.138 154.223 593.185C153.657 593.706 153.208 594.339 152.903 595.045C152.599 595.751 152.447 596.512 152.456 597.281C152.466 598.049 152.637 598.807 152.959 599.505C153.281 600.202 153.746 600.825 154.324 601.331C156.707 603.569 160.736 603.743 163.769 603.208C167.12 602.631 173.128 598.572 173.879 598.067C175.236 599.786 176.536 601.475 177.735 603.093C180.753 607.108 183.266 610.718 185.288 613.694H189C186.732 610.444 183.671 606.227 179.916 601.432C178.471 599.67 177.027 597.821 175.496 595.944C177.048 594.192 178.495 592.35 179.829 590.427C183.107 591.655 189.866 591.582 190.747 591.568C190.921 593.763 191.079 595.901 191.195 597.894C191.556 604.292 191.657 609.693 191.657 613.694H193.506L194.733 613.073C194.632 609.101 194.416 603.844 193.925 597.706C193.751 595.496 193.52 593.128 193.26 590.687C194.127 590.456 201.131 588.535 203.76 586.354C206.143 584.39 208.627 581.227 208.483 577.963C208.473 577.196 208.303 576.439 207.983 575.741C207.663 575.043 207.2 574.42 206.625 573.913C206.049 573.405 205.373 573.024 204.641 572.794C203.908 572.563 203.136 572.489 202.373 572.576C197.795 573.241 194.069 580.707 193.376 584.78C193.376 585.026 193.188 587.669 193.116 589.358C193 588.362 192.914 587.394 192.784 586.383C192.553 584.361 192.249 582.354 191.946 580.187C191.758 579.148 191.571 578.108 191.383 577.039C191.195 575.97 190.906 574.901 190.661 573.804C190.069 571.305 189.346 568.792 188.552 566.279C190.314 566.077 196.582 565.24 199.254 563.651C201.926 562.062 204.829 559.318 205.19 556.069C205.3 555.307 205.248 554.532 205.038 553.792C204.828 553.052 204.465 552.365 203.972 551.775C203.478 551.185 202.866 550.705 202.175 550.368C201.484 550.03 200.73 549.842 199.962 549.815C195.34 549.815 190.516 556.589 189.216 560.517C189.144 560.762 188.523 563.68 188.22 565.283C187.729 563.839 187.252 562.279 186.776 560.762C185.216 556.43 183.497 552.097 181.808 547.764C181.288 546.436 180.782 545.092 180.277 543.764C180.898 543.692 188.379 542.854 191.354 541.077C193.997 539.489 196.943 536.745 197.29 533.495C197.4 532.735 197.348 531.961 197.139 531.222C196.93 530.483 196.568 529.796 196.077 529.206C195.585 528.617 194.975 528.137 194.285 527.798C193.596 527.46 192.843 527.27 192.076 527.242C187.44 527.242 182.631 534.015 181.331 537.944C181.23 538.232 180.349 542.435 180.176 543.518C179.063 540.63 177.98 537.64 177.027 534.708C175.726 530.74 174.68 526.693 173.893 522.591C174.196 522.591 181.995 521.725 185.043 519.905C187.686 518.316 190.632 515.572 190.978 512.323C191.091 511.562 191.041 510.787 190.833 510.047C190.625 509.307 190.263 508.62 189.771 508.029C189.279 507.439 188.667 506.959 187.977 506.622C187.287 506.284 186.533 506.096 185.765 506.069C181.129 506.069 176.319 512.843 175.02 516.771C174.933 517.017 174.254 520.223 173.98 521.754H173.705C173.038 517.605 172.738 513.405 172.81 509.203C172.81 506.892 172.954 504.683 173.142 502.531C174.586 502.531 181.316 502.415 184.248 501.087C187.18 499.758 190.271 497.389 190.993 494.198C191.185 493.454 191.219 492.677 191.092 491.919C190.965 491.161 190.679 490.439 190.254 489.798C189.829 489.158 189.274 488.614 188.625 488.203C187.976 487.791 187.247 487.521 186.487 487.41C181.88 486.861 176.377 493.187 174.63 496.869C174.543 497.072 173.821 499.252 173.315 500.856C173.402 499.888 173.489 498.877 173.604 497.967C174.023 494.501 174.601 491.338 175.15 488.551C175.482 486.962 175.799 485.532 176.117 484.218C177.561 483.453 183.338 480.333 185.259 477.834C187.18 475.336 188.913 471.783 188.061 468.62C187.89 467.871 187.564 467.167 187.102 466.553C186.641 465.938 186.055 465.429 185.383 465.057C184.711 464.684 183.968 464.458 183.202 464.393C182.437 464.328 181.666 464.425 180.941 464.677C176.608 466.309 174.572 474.397 174.774 478.528C174.774 478.889 175.713 484.435 175.785 484.391H175.872C175.54 485.662 175.207 487.034 174.861 488.536C174.254 491.324 173.59 494.472 173.099 497.953C172.534 501.699 172.187 505.475 172.059 509.261C171.889 513.498 172.102 517.742 172.694 521.941C172.688 521.989 172.688 522.038 172.694 522.086C172.102 520.873 170.34 517.508 170.167 517.277C167.842 513.854 161.343 508.611 156.909 509.911C156.177 510.148 155.503 510.536 154.931 511.051C154.36 511.566 153.903 512.195 153.591 512.898C153.279 513.602 153.118 514.363 153.12 515.132C153.122 515.901 153.286 516.662 153.602 517.363C154.829 520.382 158.396 522.23 161.386 523.025C164.751 523.92 172.189 522.678 172.781 522.577C173.486 526.836 174.475 531.043 175.742 535.171C176.464 537.582 177.186 539.98 178.096 542.392C177.561 541.352 177.056 540.428 176.984 540.312C174.659 536.889 168.159 531.647 163.711 532.961C162.981 533.198 162.309 533.586 161.739 534.1C161.168 534.614 160.712 535.241 160.4 535.943C160.089 536.644 159.928 537.404 159.928 538.171C159.929 538.939 160.091 539.698 160.404 540.399C161.632 543.432 165.213 545.266 168.188 546.075C171.164 546.883 177.59 545.945 179.266 545.67L180.233 548.356C181.836 552.689 183.454 557.123 184.913 561.47C185.418 563.001 185.866 564.517 186.357 566.048C185.866 565.124 185.447 564.359 185.375 564.243C183.05 560.82 176.551 555.578 172.117 556.892C171.385 557.127 170.712 557.514 170.14 558.027C169.568 558.541 169.111 559.169 168.799 559.871C168.487 560.573 168.327 561.333 168.328 562.101C168.33 562.87 168.494 563.629 168.809 564.33C170.037 567.363 173.604 569.211 176.594 570.005C179.583 570.8 185.36 570.005 187.368 569.644C187.787 571.219 188.205 572.807 188.538 574.353C188.74 575.407 189.014 576.418 189.159 577.487C189.303 578.555 189.491 579.61 189.65 580.649C189.895 582.671 190.155 584.751 190.343 586.73C190.487 588.174 190.588 589.416 190.704 590.73C190.213 589.199 189.188 586.224 189.072 585.993C187.387 582.769 184.9 580.034 181.851 578.05C181.681 577.678 181.473 577.325 181.23 576.996C180.799 576.359 180.239 575.821 179.587 575.414C178.935 575.008 178.205 574.743 177.444 574.637C176.683 574.531 175.908 574.585 175.169 574.798C174.431 575.01 173.745 575.375 173.157 575.869C169.705 578.96 170.716 587.235 172.391 591.019C172.492 591.236 173.835 593.532 174.702 594.976L172.781 592.68C171.467 591.12 170.109 589.604 168.665 587.972L166.455 585.661C165.733 584.881 164.881 584.13 164.087 583.365C162.209 581.603 160.216 579.913 158.165 578.252C159.523 577.097 164.289 572.937 165.632 570.15C166.975 567.363 167.9 563.449 166.398 560.546C166.07 559.851 165.6 559.233 165.018 558.732C164.436 558.231 163.754 557.859 163.018 557.639C162.282 557.42 161.508 557.358 160.746 557.458C159.985 557.558 159.253 557.818 158.599 558.221C154.714 560.733 154.454 569.081 155.537 573.067C155.609 573.313 156.707 576.086 157.342 577.602C156.1 576.606 154.873 575.624 153.587 574.714C149.89 571.955 146.048 569.269 142.235 566.568C141.066 565.745 139.91 564.907 138.755 564.07C139.246 563.665 145.008 558.856 146.51 555.722C147.854 552.935 148.778 549.021 147.29 546.118C146.962 545.422 146.49 544.804 145.906 544.303C145.323 543.802 144.64 543.43 143.903 543.211C143.166 542.991 142.39 542.93 141.628 543.03C140.865 543.13 140.132 543.39 139.477 543.793C135.606 546.306 135.346 554.653 136.43 558.639C136.43 558.943 138.091 562.972 138.538 563.925C135.996 562.091 133.469 560.228 131.057 558.307C127.779 555.719 124.672 552.921 121.756 549.931C121.987 549.743 128.024 544.746 129.57 541.54C130.913 538.752 131.837 534.838 130.349 531.935C130.021 531.24 129.549 530.622 128.966 530.121C128.382 529.62 127.699 529.248 126.962 529.028C126.225 528.809 125.45 528.747 124.687 528.848C123.924 528.948 123.192 529.208 122.536 529.61C118.651 532.123 118.406 540.471 119.474 544.457C119.474 544.717 120.76 547.764 121.366 549.194L121.135 549.338C118.291 546.248 115.725 542.914 113.466 539.373C112.195 537.438 111.098 535.517 110.058 533.596C111.286 532.773 116.817 528.989 118.521 526.26C120.225 523.53 121.511 519.847 120.355 516.8C120.106 516.072 119.706 515.405 119.181 514.842C118.656 514.279 118.019 513.833 117.31 513.534C116.601 513.234 115.838 513.087 115.068 513.102C114.299 513.117 113.541 513.295 112.845 513.623C108.715 515.702 107.545 523.963 108.18 528.065C108.18 528.282 108.816 530.491 109.278 532.109C108.83 531.242 108.339 530.361 107.92 529.538C106.346 526.404 105.032 523.443 104.021 520.873C103.414 519.428 102.895 517.984 102.432 516.728C103.212 515.283 106.274 509.507 106.534 506.358C106.794 503.21 106.231 499.296 103.79 497.129C103.235 496.598 102.574 496.19 101.85 495.932C101.126 495.674 100.356 495.571 99.5895 495.631C98.8233 495.691 98.0785 495.912 97.4036 496.28C96.7288 496.648 96.1392 497.154 95.6734 497.765C92.9582 501.505 95.6734 509.391 98.1719 512.713C98.3597 512.843 102.245 516.959 102.245 516.887Z" fill="#263238"/>
<path d="M219.228 527.545C223.084 527.328 230.782 523.212 230.782 523.212C230.782 523.212 226.564 518.995 226.261 518.75C222.766 516.063 214.447 512.973 210.375 515.717C209.701 516.193 209.137 516.809 208.721 517.521C208.305 518.234 208.046 519.028 207.963 519.849C207.879 520.67 207.973 521.5 208.237 522.281C208.501 523.063 208.929 523.78 209.494 524.382C211.689 527.054 215.92 527.718 219.228 527.545Z" fill="#263238"/>
<path d="M298.242 489.721C298.343 489.721 297.058 483.944 296.928 483.51C295.483 479.336 290.299 472.115 285.374 472.216C284.553 472.244 283.747 472.447 283.01 472.812C282.274 473.176 281.623 473.693 281.102 474.329C280.582 474.964 280.202 475.704 279.99 476.498C279.778 477.291 279.737 478.121 279.871 478.932C280.29 482.398 283.453 485.301 286.298 486.962C289.62 488.897 298.242 489.721 298.242 489.721Z" fill="#263238"/>
<path d="M307.153 450.047C302.545 451.78 300.379 460.417 300.581 464.822C300.581 465.197 301.578 471.104 301.665 471.075H301.751C301.405 472.433 301.043 473.964 300.682 475.509C300.033 478.47 299.325 481.835 298.805 485.619C298.195 489.609 297.819 493.63 297.678 497.664C297.509 502.186 297.737 506.714 298.357 511.196C298.365 511.249 298.365 511.303 298.357 511.355C297.736 510.055 295.844 506.474 295.671 506.214C293.201 502.574 286.269 496.985 281.532 498.372C280.746 498.616 280.022 499.026 279.408 499.573C278.793 500.12 278.303 500.792 277.969 501.544C277.636 502.296 277.467 503.111 277.473 503.934C277.48 504.756 277.662 505.568 278.008 506.315C279.308 509.535 283.135 511.5 286.312 512.352C289.894 513.305 297.866 511.976 298.458 511.875C299.217 516.417 300.273 520.904 301.621 525.306C302.387 527.863 303.239 530.433 304.134 532.99C303.556 531.878 303.022 530.896 302.935 530.766C300.451 527.126 293.533 521.537 288.796 522.924C288.01 523.167 287.284 523.575 286.668 524.122C286.052 524.668 285.56 525.34 285.225 526.092C284.89 526.844 284.719 527.66 284.725 528.483C284.731 529.307 284.913 530.119 285.258 530.867C286.572 534.087 290.385 536.052 293.562 536.904C296.74 537.756 303.585 536.774 305.376 536.485C305.737 537.467 306.069 538.435 306.43 539.373C308.135 544.067 309.853 548.732 311.399 553.368C311.947 555 312.424 556.617 312.843 558.249C312.323 557.267 311.89 556.444 311.803 556.329C309.319 552.675 302.401 547.086 297.664 548.486C296.879 548.73 296.155 549.138 295.541 549.683C294.926 550.229 294.435 550.899 294.1 551.65C293.765 552.4 293.594 553.214 293.598 554.035C293.603 554.857 293.783 555.668 294.126 556.415C295.44 559.65 299.253 561.615 302.444 562.467C305.636 563.319 311.789 562.467 313.926 562.091C314.374 563.766 314.821 565.456 315.183 567.103C315.399 568.229 315.688 569.298 315.832 570.453C315.977 571.609 316.193 572.706 316.367 573.818C316.627 575.97 316.901 578.151 317.103 580.303C317.248 581.747 317.363 583.191 317.493 584.563C316.959 582.931 315.861 579.769 315.746 579.509C313.951 576.077 311.306 573.163 308.062 571.045C307.878 570.649 307.655 570.272 307.398 569.919C306.947 569.222 306.351 568.63 305.651 568.185C304.95 567.739 304.162 567.449 303.34 567.335C302.518 567.221 301.68 567.286 300.885 567.525C300.09 567.764 299.356 568.172 298.733 568.72C295.05 572.013 296.133 580.837 297.909 584.867C298.025 585.112 299.455 587.553 300.379 589.098C299.7 588.275 299.036 587.466 298.328 586.643C296.884 584.982 295.44 583.365 293.996 581.632L291.642 579.162C290.876 578.324 289.966 577.53 289.114 576.707C287.107 574.829 284.984 573.024 282.803 571.262C284.247 570.034 289.331 565.601 290.761 562.597C292.19 559.593 293.187 555.448 291.584 552.357C291.242 551.609 290.745 550.943 290.125 550.402C289.506 549.862 288.778 549.46 287.99 549.223C287.203 548.987 286.374 548.921 285.559 549.031C284.744 549.14 283.962 549.422 283.265 549.858C279.12 552.559 278.846 561.412 280.001 565.745C280.001 566.005 281.243 568.966 281.922 570.583C280.608 569.529 279.293 568.475 277.921 567.449C273.979 564.561 269.891 561.672 265.819 558.784L262.107 556.126C262.627 555.693 268.779 550.552 270.382 547.215C271.827 544.255 272.794 540.081 271.206 536.976C270.863 536.229 270.365 535.564 269.744 535.025C269.124 534.486 268.396 534.086 267.608 533.851C266.821 533.616 265.993 533.551 265.178 533.662C264.364 533.772 263.583 534.055 262.887 534.492C258.742 537.178 258.467 546.046 259.623 550.378C259.71 550.696 261.399 554.957 261.876 556.025C259.161 554.061 256.46 552.083 253.889 550.032C250.399 547.272 247.089 544.291 243.982 541.106C244.227 540.904 250.669 535.575 252.315 532.152C253.759 529.264 254.727 525.003 253.138 521.913C252.796 521.164 252.297 520.497 251.676 519.956C251.054 519.416 250.324 519.015 249.535 518.78C248.746 518.544 247.916 518.481 247.1 518.593C246.284 518.704 245.502 518.989 244.805 519.428C240.675 522.115 240.4 530.982 241.555 535.315C241.628 535.604 242.913 538.839 243.563 540.37L243.317 540.529C240.284 537.231 237.544 533.674 235.129 529.899C233.785 527.834 232.601 525.783 231.504 523.761C232.803 522.895 238.725 518.851 240.53 515.933C242.335 513.016 243.722 509.102 242.48 505.824C242.213 505.049 241.786 504.339 241.227 503.74C240.668 503.141 239.989 502.666 239.235 502.346C238.48 502.026 237.667 501.868 236.848 501.883C236.028 501.897 235.221 502.084 234.479 502.43C230.146 504.654 228.817 513.464 229.496 517.825C229.496 518.056 230.175 520.425 230.666 522.158C230.189 521.234 229.669 520.295 229.222 519.4C227.546 516.078 226.218 512.915 225.062 510.113C224.412 508.51 223.864 507.051 223.373 505.679C224.196 504.163 227.474 497.996 227.705 494.631C227.936 491.266 227.388 487.092 224.817 484.781C224.228 484.206 223.523 483.764 222.749 483.484C221.975 483.203 221.151 483.091 220.33 483.156C219.51 483.22 218.712 483.459 217.992 483.856C217.271 484.254 216.644 484.8 216.151 485.46C213.263 489.461 216.224 497.852 218.823 501.347C219.054 501.664 223.156 506.055 223.156 505.968V505.882C223.604 507.21 224.109 508.626 224.687 510.214C225.784 513.103 227.055 516.237 228.673 519.631C230.395 523.29 232.324 526.849 234.45 530.289C236.794 534.157 239.481 537.807 242.48 541.193L242.595 541.309C241.353 540.572 237.8 538.622 237.512 538.507C233.439 536.831 224.586 535.994 221.394 539.763C220.872 540.401 220.493 541.143 220.281 541.939C220.07 542.736 220.031 543.568 220.168 544.381C220.305 545.193 220.614 545.967 221.075 546.65C221.535 547.333 222.136 547.91 222.838 548.342C225.727 550.306 229.973 549.786 233.092 548.804C236.616 547.62 242.494 542.132 242.971 541.699C246.124 545.075 249.502 548.236 253.08 551.158C255.131 552.877 257.254 554.538 259.421 556.184C258.323 555.578 257.341 555.043 257.197 554.985C253.109 553.31 244.198 552.473 241.064 556.242C240.556 556.885 240.188 557.628 239.984 558.422C239.781 559.216 239.746 560.044 239.882 560.852C240.018 561.66 240.322 562.431 240.775 563.115C241.227 563.798 241.818 564.38 242.509 564.821C245.397 566.785 249.643 566.265 252.763 565.268C255.882 564.272 261.038 559.636 262.381 558.408L264.88 560.271C268.88 563.247 272.895 566.178 276.737 569.197C278.095 570.251 279.394 571.349 280.694 572.432C279.727 571.897 278.903 571.464 278.773 571.406C274.686 569.731 265.775 568.893 262.656 572.663C262.134 573.301 261.755 574.043 261.543 574.839C261.332 575.635 261.293 576.468 261.43 577.28C261.567 578.093 261.876 578.867 262.336 579.55C262.797 580.233 263.398 580.81 264.1 581.242C266.988 583.206 271.234 582.686 274.354 581.689C277.474 580.693 282.138 576.49 283.727 575.046C285.027 576.201 286.341 577.357 287.54 578.527C288.349 579.35 289.186 580.086 289.952 580.967L292.248 583.48C293.692 585.127 295.137 586.831 296.436 588.477C297.361 589.618 298.227 590.716 299.108 591.828C297.765 590.759 295.108 588.708 294.862 588.564C291.093 586.296 282.456 584.13 278.745 587.38C278.137 587.93 277.653 588.603 277.326 589.355C276.999 590.106 276.835 590.919 276.846 591.738C276.857 592.558 277.042 593.366 277.39 594.109C277.737 594.851 278.238 595.511 278.86 596.045C281.402 598.428 285.691 598.616 288.97 598.053C292.551 597.432 298.949 593.113 299.758 592.564C301.202 594.399 302.647 596.204 303.874 597.923C308.207 603.83 311.745 608.913 314.128 612.524L317.118 611.08L316.945 610.834C314.46 607.223 310.821 602.169 306.185 596.204C304.741 594.341 303.138 592.362 301.477 590.355C303.119 588.485 304.652 586.522 306.069 584.477C309.55 585.777 316.771 585.719 317.71 585.704C317.898 588.03 318.057 590.297 318.172 592.449C318.605 599.8 318.692 605.953 318.678 610.285L321.956 608.624C321.855 604.393 321.624 598.789 321.089 592.247C320.916 589.878 320.671 587.351 320.396 584.766C321.306 584.52 328.787 582.469 331.575 580.158C334.116 578.064 336.774 574.685 336.615 571.204C336.622 570.379 336.452 569.563 336.116 568.809C335.781 568.056 335.289 567.382 334.671 566.835C334.054 566.288 333.327 565.879 332.539 565.636C331.751 565.393 330.92 565.322 330.101 565.427C325.22 566.135 321.248 574.093 320.512 578.425C320.512 578.685 320.31 581.516 320.237 583.307C320.122 582.253 320.006 581.213 319.876 580.13C319.631 577.978 319.313 575.797 318.981 573.529C318.779 572.432 318.576 571.305 318.374 570.179C318.172 569.052 317.869 567.883 317.623 566.727C316.988 564.055 316.179 561.383 315.37 558.712C317.248 558.481 323.935 557.585 326.765 555.895C329.596 554.206 332.73 551.274 333.105 547.808C333.233 546.994 333.186 546.163 332.966 545.369C332.746 544.576 332.36 543.839 331.832 543.207C331.304 542.575 330.647 542.063 329.905 541.706C329.163 541.349 328.354 541.154 327.531 541.135C322.606 541.135 317.421 548.356 316.078 552.545C315.991 552.805 315.341 555.924 315.009 557.643C314.489 556.04 313.984 554.422 313.406 552.819C311.745 548.183 309.911 543.533 308.106 538.897L306.474 534.564C307.153 534.564 315.139 533.596 318.288 531.676C321.176 529.986 324.252 527.054 324.628 523.588C324.756 522.774 324.708 521.943 324.488 521.15C324.269 520.356 323.882 519.619 323.354 518.987C322.826 518.355 322.169 517.843 321.428 517.486C320.686 517.129 319.876 516.934 319.053 516.915C314.128 516.915 308.943 524.137 307.6 528.339C307.499 528.643 306.56 533.134 306.373 534.275C305.188 531.141 304.033 528.007 303.022 524.873C301.621 520.648 300.501 516.335 299.671 511.962C299.989 511.962 308.337 511.037 311.557 509.073C314.446 507.398 317.522 504.452 317.898 501C318.026 500.187 317.978 499.355 317.758 498.562C317.539 497.768 317.152 497.031 316.624 496.399C316.096 495.767 315.439 495.256 314.697 494.898C313.956 494.541 313.146 494.346 312.323 494.328C307.398 494.328 302.213 501.549 300.87 505.737C300.784 506.011 300.061 509.42 299.758 511.052H299.484C298.757 506.633 298.433 502.156 298.516 497.678C298.516 495.209 298.675 492.855 298.877 490.558C300.437 490.558 307.543 490.443 310.72 489.013C313.897 487.583 317.147 485.07 317.941 481.676C318.154 480.884 318.195 480.056 318.063 479.247C317.931 478.438 317.628 477.666 317.174 476.983C316.721 476.3 316.127 475.721 315.432 475.285C314.738 474.849 313.959 474.566 313.146 474.455C308.236 473.877 302.343 480.535 300.509 484.565C300.408 484.781 299.628 487.106 299.065 488.811C299.166 487.771 299.267 486.702 299.383 485.72C299.816 482.023 300.451 478.658 301.029 475.61C301.376 473.921 301.722 472.404 302.054 470.989C303.6 470.18 309.723 466.829 311.803 464.186C313.883 461.544 315.702 457.716 314.807 454.351C314.645 453.533 314.308 452.759 313.818 452.083C313.329 451.407 312.699 450.845 311.971 450.436C311.244 450.027 310.436 449.781 309.604 449.714C308.773 449.646 307.936 449.76 307.153 450.047V450.047Z" fill="#263238"/>
<path d="M510.385 461.356C513.505 464.432 522.763 467.754 522.763 467.754C522.763 467.754 523.095 460.995 523.066 460.533C522.676 455.55 518.979 446.162 513.534 444.863C512.624 444.674 511.684 444.679 510.775 444.878C509.867 445.076 509.011 445.464 508.263 446.016C507.515 446.568 506.891 447.272 506.433 448.081C505.976 448.89 505.693 449.786 505.605 450.712C505.085 454.655 507.728 458.727 510.385 461.356Z" fill="#263238"/>
<path d="M602.354 499.021C602.354 499.094 606.369 493.562 606.571 493.244C608.998 488.912 611.092 479.004 607.265 474.917C606.611 474.257 605.825 473.743 604.959 473.407C604.092 473.071 603.165 472.921 602.237 472.968C601.31 473.014 600.402 473.255 599.573 473.676C598.745 474.096 598.014 474.687 597.429 475.408C594.83 478.398 594.801 483.265 595.566 486.962C596.462 491.15 602.354 499.007 602.354 499.021Z" fill="#263238"/>
<path d="M642.489 476.318C637.507 473.762 628.61 478.499 625.072 482.095C624.769 482.398 620.537 487.713 620.638 487.756H620.739C619.295 488.493 617.851 489.302 616.204 490.212C613.215 491.93 609.85 493.894 606.326 496.277C602.511 498.806 598.846 501.555 595.35 504.509C591.415 507.801 587.781 511.436 584.489 515.37L584.388 515.529C584.995 513.998 586.569 509.752 586.655 509.348C587.84 504.495 587.262 494.414 582.482 491.497C581.676 491.033 580.782 490.744 579.857 490.649C578.933 490.554 577.998 490.655 577.115 490.945C576.232 491.236 575.42 491.709 574.732 492.334C574.045 492.959 573.496 493.722 573.123 494.573C571.404 498.126 572.661 502.834 574.365 506.127C576.286 509.868 583.449 515.529 584.027 515.977C580.778 520.063 577.806 524.362 575.13 528.845C573.556 531.444 572.054 534.116 570.581 536.817C571.072 535.488 571.491 534.29 571.534 534.116C572.719 529.264 572.141 519.183 567.375 516.266C566.569 515.801 565.675 515.511 564.75 515.415C563.825 515.319 562.89 515.419 562.006 515.707C561.122 515.996 560.309 516.468 559.619 517.091C558.929 517.715 558.378 518.477 558.002 519.327C556.298 522.895 557.54 527.588 559.244 530.881C560.948 534.174 566.985 539.2 568.588 540.485C568.039 541.54 567.476 542.565 566.927 543.605C564.284 548.602 561.67 553.613 558.955 558.437C558.002 560.141 556.991 561.788 555.994 563.434C556.428 562.25 556.789 561.239 556.817 561.095C558.002 556.228 557.424 546.161 552.658 543.229C551.851 542.765 550.956 542.476 550.031 542.381C549.105 542.286 548.17 542.387 547.285 542.677C546.401 542.967 545.588 543.44 544.899 544.065C544.21 544.691 543.66 545.454 543.285 546.306C541.581 549.858 542.823 554.567 544.527 557.859C546.231 561.152 551.748 565.687 553.582 567.233C552.514 568.879 551.445 570.54 550.333 572.1C549.539 573.139 548.889 574.208 548.008 575.205C547.127 576.201 546.39 577.227 545.581 578.209C543.978 580.072 542.317 581.993 540.7 583.769C539.588 585.011 538.49 586.166 537.407 587.336C538.375 585.661 540.209 582.325 540.295 582.022C541.818 577.898 542.256 573.452 541.566 569.11C541.755 568.642 541.904 568.159 542.014 567.666C542.235 566.763 542.264 565.824 542.099 564.91C541.933 563.996 541.578 563.126 541.055 562.358C540.532 561.59 539.853 560.941 539.063 560.452C538.273 559.963 537.389 559.646 536.468 559.52C530.893 558.914 524.293 566.554 522.257 571.074C522.141 571.349 521.174 574.41 520.582 576.36C520.755 575.161 520.928 574.006 521.087 572.764C521.419 570.338 521.679 567.897 521.968 565.268C522.055 563.997 522.156 562.712 522.243 561.412C522.329 560.113 522.329 558.755 522.387 557.412C522.387 554.292 522.387 551.144 522.156 547.966C524.293 548.241 531.89 549.136 535.486 548.082C539.082 547.028 543.328 544.674 544.715 540.976C545.073 540.118 545.246 539.193 545.223 538.263C545.2 537.333 544.981 536.419 544.58 535.579C544.18 534.739 543.606 533.994 542.898 533.391C542.189 532.788 541.362 532.341 540.469 532.08C535.067 530.636 527.384 537.192 524.683 541.395C524.51 541.655 522.921 544.89 522.069 546.696C521.954 544.775 521.853 542.868 521.665 540.919C521.145 535.344 520.437 529.726 519.758 524.122C519.556 522.404 519.368 520.685 519.166 518.981C519.932 519.082 528.929 520.338 532.959 519.154C536.54 518.1 540.801 515.746 542.187 512.048C542.543 511.19 542.715 510.266 542.691 509.336C542.666 508.407 542.447 507.493 542.046 506.654C541.646 505.815 541.074 505.07 540.366 504.466C539.659 503.863 538.833 503.415 537.941 503.152C532.54 501.708 524.857 508.264 522.156 512.467C521.954 512.785 519.657 517.45 519.137 518.663C518.704 514.879 518.314 511.124 518.083 507.383C517.758 502.348 517.758 497.298 518.083 492.262C518.43 492.262 527.817 493.707 531.948 492.45C535.529 491.396 539.79 489.042 541.176 485.344C541.533 484.486 541.704 483.562 541.68 482.632C541.655 481.703 541.436 480.789 541.035 479.95C540.635 479.111 540.063 478.366 539.355 477.763C538.648 477.159 537.822 476.711 536.93 476.448C531.529 475.004 523.846 481.561 521.145 485.763C520.972 486.052 519.21 489.591 518.43 491.295L518.112 491.223C518.568 486.16 519.472 481.148 520.813 476.246C521.52 473.545 522.358 470.989 523.21 468.534C524.929 468.967 532.829 470.859 536.656 470.166C540.483 469.472 544.83 467.653 546.621 464.129C547.071 463.314 547.344 462.415 547.423 461.488C547.502 460.561 547.385 459.629 547.08 458.75C546.775 457.871 546.288 457.067 545.652 456.389C545.016 455.71 544.244 455.174 543.386 454.813C538.158 452.806 529.796 458.453 526.662 462.338C526.489 462.554 524.987 464.894 523.918 466.671C524.322 465.558 524.727 464.418 525.131 463.363C526.647 459.42 528.294 455.897 529.767 452.791C530.634 451.029 531.428 449.455 532.208 447.997C534.114 447.534 541.797 445.599 544.83 443.26C547.863 440.92 550.925 437.251 550.882 433.309C550.906 432.374 550.732 431.445 550.371 430.582C550.011 429.719 549.472 428.942 548.79 428.303C548.108 427.663 547.298 427.175 546.414 426.87C545.53 426.566 544.592 426.451 543.661 426.535C538.1 427.156 533.291 436.024 532.28 440.978C532.193 441.411 531.601 448.199 531.702 448.199H531.818C531.052 449.643 530.244 451.087 529.391 452.763C527.846 455.839 526.113 459.334 524.496 463.262C522.712 467.478 521.173 471.794 519.888 476.188C518.421 481.103 517.396 486.139 516.827 491.237C516.819 491.299 516.819 491.362 516.827 491.425C516.509 489.807 515.382 485.344 515.382 485.012C513.678 480.319 507.641 472.231 502.052 472.419C501.124 472.478 500.218 472.732 499.394 473.164C498.57 473.597 497.845 474.197 497.268 474.927C496.691 475.657 496.273 476.499 496.042 477.401C495.812 478.302 495.773 479.242 495.929 480.16C496.463 484.074 500.102 487.294 503.366 489.128C507.035 491.194 516.133 492.017 516.856 492.017C516.394 497.217 516.288 502.443 516.538 507.658C516.653 510.705 516.884 513.753 517.13 516.814C516.812 515.37 516.509 514.2 516.451 514.041C514.747 509.333 508.71 501.245 503.121 501.448C502.193 501.505 501.287 501.758 500.463 502.188C499.639 502.619 498.915 503.218 498.337 503.947C497.76 504.675 497.342 505.517 497.111 506.418C496.88 507.319 496.842 508.258 496.997 509.174C497.532 513.088 501.171 516.323 504.435 518.143C507.699 519.963 515.469 520.815 517.52 521.031C517.635 522.201 517.737 523.386 517.852 524.555C518.401 530.188 518.979 535.792 519.383 541.323C519.527 543.273 519.6 545.194 519.672 547.1C519.383 545.872 519.123 544.847 519.065 544.688C517.375 539.994 511.339 531.907 505.735 532.094C504.808 532.154 503.904 532.408 503.082 532.839C502.26 533.27 501.537 533.87 500.961 534.598C500.385 535.327 499.969 536.168 499.739 537.068C499.509 537.968 499.47 538.905 499.626 539.821C500.16 543.735 503.8 546.97 507.049 548.804C510.299 550.638 517.332 551.389 519.773 551.62C519.773 553.599 519.773 555.563 519.773 557.484C519.686 558.784 519.701 560.04 519.556 561.355C519.412 562.669 519.311 563.925 519.195 565.196C518.863 567.637 518.545 570.15 518.17 572.518C517.924 574.179 517.664 575.739 517.39 577.328C517.274 575.378 516.971 571.551 516.899 571.276C515.946 566.38 511.194 557.47 505.634 556.834C504.707 556.749 503.773 556.86 502.892 557.16C502.011 557.46 501.203 557.943 500.521 558.577C499.84 559.211 499.3 559.981 498.936 560.838C498.573 561.695 498.394 562.619 498.413 563.55C498.34 567.507 501.446 571.248 504.392 573.544C507.627 576.086 516.133 578.18 517.202 578.44C516.754 581.039 516.307 583.581 515.83 585.979C514.227 594.182 512.595 600.955 511.367 605.707L514.906 607.065C514.906 606.963 514.906 606.862 514.978 606.747C516.119 601.909 517.635 594.976 519.094 586.528C519.556 583.885 519.99 581.039 520.423 578.108C523.244 578.076 526.061 577.873 528.857 577.501C530.417 581.415 535.963 587.437 536.685 588.217C534.88 590.153 533.089 592.016 531.385 593.749C525.521 599.699 520.408 604.45 516.769 607.743L520.654 609.188C524.134 605.88 528.669 601.418 533.768 596.002C535.616 594.038 537.551 591.915 539.544 589.719C540.44 590.297 547.849 595.02 551.922 595.612C555.619 596.146 560.471 595.814 563.288 593.041C563.972 592.41 564.515 591.643 564.883 590.788C565.251 589.933 565.435 589.01 565.423 588.08C565.41 587.15 565.202 586.232 564.812 585.387C564.422 584.543 563.858 583.789 563.158 583.177C558.825 579.61 549.134 582.339 544.917 585.026C544.672 585.184 542.159 587.206 540.584 588.506L542.996 585.791C544.614 583.942 546.174 582.05 547.849 580.014L550.217 576.952C551.026 575.956 551.763 574.786 552.543 573.688C554.305 571.132 555.951 568.431 557.568 565.687C559.186 567.131 565.035 572.042 568.617 573.139C572.199 574.237 577.037 574.584 580.171 572.316C580.942 571.797 581.595 571.121 582.088 570.333C582.581 569.544 582.903 568.661 583.032 567.74C583.162 566.82 583.096 565.882 582.839 564.988C582.583 564.095 582.141 563.265 581.543 562.553C577.817 558.365 567.808 559.593 563.23 561.6C562.941 561.73 559.836 563.55 558.132 564.575C559.099 562.929 560.053 561.268 561.02 559.564C563.663 554.639 566.176 549.555 568.704 544.5C569.469 542.955 570.263 541.424 571.043 539.893C571.621 540.399 578.438 546.407 582.453 547.649C586.02 548.732 590.873 549.093 594.007 546.811C594.785 546.3 595.446 545.631 595.947 544.847C596.448 544.063 596.777 543.181 596.914 542.261C597.05 541.34 596.99 540.401 596.738 539.505C596.486 538.609 596.047 537.777 595.451 537.062C591.725 532.874 581.702 534.087 577.138 536.109C576.791 536.268 572.314 538.882 571.202 539.604C572.935 536.225 574.683 532.86 576.546 529.625C579.045 525.239 581.824 521.018 584.865 516.988C585.139 517.233 592.216 523.53 596.332 524.801C599.899 525.884 604.752 526.245 607.886 523.963C608.658 523.447 609.313 522.773 609.807 521.986C610.301 521.199 610.624 520.316 610.753 519.396C610.883 518.476 610.817 517.539 610.559 516.646C610.301 515.753 609.858 514.924 609.258 514.215C605.532 510.026 595.509 511.24 590.945 513.262C590.641 513.392 587.233 515.385 585.63 516.381L585.413 516.136C588.586 512.168 592.104 508.49 595.927 505.145C598.007 503.282 600.101 501.607 602.181 500.032C603.38 501.347 608.925 507.254 612.493 508.813C616.06 510.373 620.696 511.211 624.133 509.261C624.956 508.83 625.679 508.23 626.256 507.502C626.832 506.773 627.249 505.931 627.479 505.031C627.709 504.131 627.748 503.193 627.592 502.277C627.436 501.361 627.089 500.488 626.574 499.715C623.324 495.151 613.229 495.266 608.463 496.826C608.203 496.898 605.661 498.025 603.827 498.877C604.78 498.169 605.734 497.433 606.716 496.783C610.167 494.342 613.475 492.306 616.421 490.529C618.111 489.533 619.656 488.666 621.1 487.872C622.949 488.536 630.43 491.165 634.243 490.89C638.056 490.616 642.634 489.244 644.786 485.922C645.318 485.157 645.683 484.287 645.856 483.371C646.029 482.455 646.007 481.512 645.79 480.605C645.573 479.699 645.167 478.848 644.598 478.109C644.029 477.37 643.311 476.76 642.489 476.318Z" fill="#263238"/>
<path d="M289.504 85.0894C289.057 83.6452 288.594 82.3598 288.06 80.9878C269.935 30.454 185.389 26.9879 185.389 89.09C185.389 101.048 156.678 89.09 145.904 104.644C135.13 120.199 147.103 129.76 132.747 134.54C118.391 139.32 117.193 127.319 99.2553 128.561C81.3179 129.803 83.7009 146.498 77.6929 151.279C71.6849 156.059 71.7137 153.676 58.5568 154.875C45.3998 156.074 43.0312 165.634 43.0312 165.634H357.643C357.643 165.634 369.601 129.745 348.068 116.53C326.534 103.316 326.549 121.311 309.796 114.133C295.96 108.269 293.375 97.0044 289.504 85.0894Z" stroke="#263238" stroke-linecap="round" stroke-linejoin="round"/>
<path d="M300.379 152.55C300.379 152.55 306.893 132.33 290.905 117.585C274.918 102.839 258.309 111.071 253.572 117.585C248.835 124.098 248.835 136.547 241.137 137.804C233.439 139.06 235.201 124.806 218.621 128.33C202.042 131.854 208.512 148.477 200.843 152.03C193.174 155.582 193.145 142.541 182.472 146.7C171.799 150.86 172.363 158.543 172.363 158.543" stroke="#263238" stroke-linecap="round" stroke-linejoin="round"/>
<path d="M215.285 112.299C210.925 109.193 205.813 107.311 200.481 106.846C195.148 106.381 189.788 107.352 184.956 109.656C167.799 117.57 175.713 134.063 167.799 138.021C159.884 141.978 155.927 137.356 146.034 141.978C136.141 146.599 136.805 153.2 136.805 153.2" stroke="#263238" stroke-linecap="round" stroke-linejoin="round"/>
<path d="M540.238 23.3773C540.007 22.6552 539.761 21.9331 539.501 21.2109C529.883 -5.52184 485.169 -7.37046 485.169 25.5436C485.169 31.8694 469.976 25.5436 464.285 33.7758C458.595 42.0079 464.921 47.0627 457.324 49.6623C449.728 52.262 449.092 45.864 439.603 46.4995C430.115 47.1349 431.386 55.9881 428.223 58.5155C425.06 61.0429 425.06 59.7864 418.113 60.4219C411.166 61.0574 409.867 65.9822 409.867 65.9822H576.286C576.286 65.9822 582.612 47.005 571.217 39.986C559.822 32.967 559.836 42.5134 550.997 38.7151C543.661 35.6533 542.289 29.6886 540.238 23.3773Z" stroke="#263238" stroke-linecap="round" stroke-linejoin="round"/>
<path d="M546 59.0643C546 59.0643 549.438 48.4059 540.974 40.5637C532.511 32.7215 523.745 37.1264 521.232 40.5637C518.719 44.001 518.733 50.6011 514.66 51.2221C510.588 51.8432 511.526 44.3332 502.746 46.2107C493.965 48.0882 497.416 56.8691 493.344 58.7466C489.271 60.6241 489.3 53.7351 483.624 55.8726C477.948 58.01 478.295 62.1406 478.295 62.1406" stroke="#263238" stroke-linecap="round" stroke-linejoin="round"/>
<path d="M500.984 37.7618C498.679 36.1098 495.975 35.1047 493.151 34.8507C490.327 34.5968 487.486 35.1033 484.924 36.3176C475.854 40.5059 480.042 49.2291 475.854 51.3232C471.666 53.4173 469.572 50.9766 464.3 53.4173C459.029 55.8581 459.419 59.3387 459.419 59.3387" stroke="#263238" stroke-linecap="round" stroke-linejoin="round"/>
<path d="M625.058 245.789C624.826 245.067 624.581 244.345 624.321 243.623C614.717 216.89 569.989 215.042 569.989 247.956C569.989 254.281 554.796 247.956 549.105 256.188C543.415 264.42 549.741 269.475 542.144 272.074C534.547 274.674 533.926 268.276 524.423 268.912C514.92 269.547 516.206 278.4 513.043 280.928C509.88 283.455 509.88 282.198 502.933 282.834C495.986 283.469 494.701 288.524 494.701 288.524H661.163C661.163 288.524 667.489 269.547 656.094 262.528C644.699 255.509 644.714 265.055 635.875 261.257C628.538 258.065 627.166 252.101 625.058 245.789Z" stroke="#263238" stroke-linecap="round" stroke-linejoin="round"/>
<path d="M630.834 281.476C630.834 281.476 634.272 270.818 625.808 262.976C617.345 255.134 608.579 259.538 606.066 262.976C603.553 266.413 603.567 273.013 599.495 273.634C595.422 274.255 596.361 266.745 587.58 268.623C578.799 270.5 582.25 279.281 578.178 281.159C574.105 283.036 574.105 276.147 568.458 278.27C562.811 280.393 563.129 284.538 563.129 284.538" stroke="#263238" stroke-linecap="round" stroke-linejoin="round"/>
<path d="M585.861 260.174C583.558 258.525 580.856 257.521 578.035 257.267C575.214 257.013 572.376 257.518 569.816 258.73C560.731 262.918 564.92 271.641 560.731 273.735C556.543 275.829 554.463 273.389 549.177 275.829C543.892 278.27 544.296 281.751 544.296 281.751" stroke="#263238" stroke-linecap="round" stroke-linejoin="round"/>
<path d="M167.438 502.878C167.438 502.878 176.681 497.187 202.995 502.878C229.308 508.568 237.122 520.656 239.259 528.469C241.397 536.283 230.724 542.695 213.653 546.248C196.582 549.801 172.42 526.332 170.326 519.934C168.232 513.536 167.438 502.878 167.438 502.878Z" fill="#263238" stroke="#263238" stroke-linecap="round" stroke-linejoin="round"/>
<path d="M151.984 367.611C152.585 372.414 154.355 376.996 157.14 380.955C161.877 387.844 170.138 398.185 170.138 398.185C170.138 398.185 140.864 425.741 140.43 433.482C139.997 441.223 142.149 452.43 148.605 457.601C155.061 462.771 174.009 485.576 179.613 488.594L180.031 525.191C180.031 525.191 180.898 535.95 205.435 538.969C229.973 541.987 229.554 534.636 229.554 534.636C229.554 534.636 226.102 497.173 226.969 486.413C227.835 475.654 230.782 464.49 230.782 448.127C230.782 431.763 223.459 411.53 219.156 405.926C214.852 400.322 203.645 381.822 201.897 377.518C200.15 373.214 194.575 370.196 191.123 362.44C187.671 354.685 182.949 344.792 178.645 349.529C174.341 354.266 174.312 364.592 177.36 371.062L180.364 377.518C180.364 377.518 172.189 363.74 164.867 362.873C157.545 362.007 156.721 361.588 151.984 367.611Z" fill="#ADADAD" stroke="#263238" stroke-linecap="round" stroke-linejoin="round"/>
<path d="M186.848 436.067C186.848 436.067 185.129 453.282 195.513 464.49" stroke="#263238" stroke-linecap="round" stroke-linejoin="round"/>
<path d="M195.889 460.172C195.889 460.172 200.222 468.837 204.078 473.097" stroke="#263238" stroke-linecap="round" stroke-linejoin="round"/>
<path d="M182.978 488.594C182.978 488.594 187.31 491.179 195.47 488.594" stroke="#263238" stroke-linecap="round" stroke-linejoin="round"/>
<path d="M178.24 374.066L164.462 318.535" stroke="#263238" stroke-width="2" stroke-linecap="round" stroke-linejoin="round"/>
<path d="M164.029 321.121C166.406 321.121 168.333 319.194 168.333 316.817C168.333 314.44 166.406 312.513 164.029 312.513C161.652 312.513 159.725 314.44 159.725 316.817C159.725 319.194 161.652 321.121 164.029 321.121Z" fill="#263238"/>
<path d="M152.23 318.68L156.331 314.405L152.201 314.679" stroke="#263238" stroke-width="0.5" stroke-linecap="round" stroke-linejoin="round"/>
<path d="M152.88 311.04L156.331 314.405L156.692 309.061" stroke="#263238" stroke-width="0.5" stroke-linecap="round" stroke-linejoin="round"/>
<path d="M154.642 319.344L156.331 314.405L158.743 309.841" stroke="#263238" stroke-width="0.5" stroke-linecap="round" stroke-linejoin="round"/>
<path d="M156.331 314.405L163.076 317.337" stroke="#263238" stroke-width="0.5" stroke-linecap="round" stroke-linejoin="round"/>
<path d="M155.45 325.28L156.259 319.402L153.067 322.059" stroke="#263238" stroke-width="0.5" stroke-linecap="round" stroke-linejoin="round"/>
<path d="M151.493 318.723L156.259 319.402L153.414 314.882" stroke="#263238" stroke-width="0.5" stroke-linecap="round" stroke-linejoin="round"/>
<path d="M157.805 324.399L156.259 319.402L155.523 314.304" stroke="#263238" stroke-width="0.5" stroke-linecap="round" stroke-linejoin="round"/>
<path d="M156.259 319.402L163.437 317.828" stroke="#263238" stroke-width="0.5" stroke-linecap="round" stroke-linejoin="round"/>
<path d="M161.95 328.732L159.148 323.504L158.122 327.519" stroke="#263238" stroke-width="0.5" stroke-linecap="round" stroke-linejoin="round"/>
<path d="M154.887 325.742L159.148 323.504L154.179 321.511" stroke="#263238" stroke-width="0.5" stroke-linecap="round" stroke-linejoin="round"/>
<path d="M163.321 326.638L159.148 323.504L155.552 319.806" stroke="#263238" stroke-width="0.5" stroke-linecap="round" stroke-linejoin="round"/>
<path d="M159.148 323.504L164.029 318.001" stroke="#263238" stroke-width="0.5" stroke-linecap="round" stroke-linejoin="round"/>
<path d="M169.228 327.692L163.885 325.121L165.43 328.963" stroke="#263238" stroke-width="0.5" stroke-linecap="round" stroke-linejoin="round"/>
<path d="M161.762 329.439L163.885 325.121L158.7 326.421" stroke="#263238" stroke-width="0.5" stroke-linecap="round" stroke-linejoin="round"/>
<path d="M169.113 325.193L163.885 325.121L158.801 324.24" stroke="#263238" stroke-width="0.5" stroke-linecap="round" stroke-linejoin="round"/>
<path d="M163.885 325.121L164.607 317.799" stroke="#263238" stroke-width="0.5" stroke-linecap="round" stroke-linejoin="round"/>
<path d="M174.514 322.594L168.665 323.634L172.175 325.858" stroke="#263238" stroke-width="0.5" stroke-linecap="round" stroke-linejoin="round"/>
<path d="M169.488 328.385L168.665 323.634L165.242 327.75" stroke="#263238" stroke-width="0.5" stroke-linecap="round" stroke-linejoin="round"/>
<path d="M172.94 320.63L168.665 323.634L164.043 325.915" stroke="#263238" stroke-width="0.5" stroke-linecap="round" stroke-linejoin="round"/>
<path d="M168.665 323.634L164.953 317.293" stroke="#263238" stroke-width="0.5" stroke-linecap="round" stroke-linejoin="round"/>
<path d="M175.771 315.344L171.669 319.633L175.814 319.359" stroke="#263238" stroke-width="0.5" stroke-linecap="round" stroke-linejoin="round"/>
<path d="M175.121 322.984L171.669 319.633L171.308 324.962" stroke="#263238" stroke-width="0.5" stroke-linecap="round" stroke-linejoin="round"/>
<path d="M173.359 314.679L171.669 319.633L169.257 324.197" stroke="#263238" stroke-width="0.5" stroke-linecap="round" stroke-linejoin="round"/>
<path d="M171.669 319.633L164.925 316.687" stroke="#263238" stroke-width="0.5" stroke-linecap="round" stroke-linejoin="round"/>
<path d="M158.772 306.332L164.116 308.917L162.585 305.061" stroke="#263238" stroke-width="0.5" stroke-linecap="round" stroke-linejoin="round"/>
<path d="M166.239 304.599L164.116 308.917L169.315 307.603" stroke="#263238" stroke-width="0.5" stroke-linecap="round" stroke-linejoin="round"/>
<path d="M158.888 308.83L164.116 308.917L169.2 309.798" stroke="#263238" stroke-width="0.5" stroke-linecap="round" stroke-linejoin="round"/>
<path d="M164.116 308.917L163.408 316.225" stroke="#263238" stroke-width="0.5" stroke-linecap="round" stroke-linejoin="round"/>
<path d="M153.5 311.444L159.335 310.39L155.826 308.18" stroke="#263238" stroke-width="0.5" stroke-linecap="round" stroke-linejoin="round"/>
<path d="M158.512 305.653L159.335 310.39L162.758 306.288" stroke="#263238" stroke-width="0.5" stroke-linecap="round" stroke-linejoin="round"/>
<path d="M155.06 313.394L159.335 310.39L163.971 308.108" stroke="#263238" stroke-width="0.5" stroke-linecap="round" stroke-linejoin="round"/>
<path d="M159.335 310.39L163.062 316.73" stroke="#263238" stroke-width="0.5" stroke-linecap="round" stroke-linejoin="round"/>
<path d="M155.234 318.261L158.281 315.069L155.205 315.271" stroke="#263238" stroke-width="0.5" stroke-linecap="round" stroke-linejoin="round"/>
<path d="M155.71 312.571L158.281 315.069L158.556 311.083" stroke="#263238" stroke-width="0.5" stroke-linecap="round" stroke-linejoin="round"/>
<path d="M157.025 318.752L158.281 315.069L160.086 311.661" stroke="#263238" stroke-width="0.5" stroke-linecap="round" stroke-linejoin="round"/>
<path d="M158.281 315.069L163.307 317.265" stroke="#263238" stroke-width="0.5" stroke-linecap="round" stroke-linejoin="round"/>
<path d="M157.631 323.186L158.238 318.795L155.855 320.774" stroke="#263238" stroke-width="0.5" stroke-linecap="round" stroke-linejoin="round"/>
<path d="M154.685 318.29L158.238 318.795L156.115 315.416" stroke="#263238" stroke-width="0.5" stroke-linecap="round" stroke-linejoin="round"/>
<path d="M159.379 322.522L158.238 318.795L157.689 314.997" stroke="#263238" stroke-width="0.5" stroke-linecap="round" stroke-linejoin="round"/>
<path d="M158.238 318.795L163.581 317.626" stroke="#263238" stroke-width="0.5" stroke-linecap="round" stroke-linejoin="round"/>
<path d="M162.469 325.742L160.375 321.843L159.624 324.847" stroke="#263238" stroke-width="0.5" stroke-linecap="round" stroke-linejoin="round"/>
<path d="M157.212 323.518L160.375 321.843L156.678 320.37" stroke="#263238" stroke-width="0.5" stroke-linecap="round" stroke-linejoin="round"/>
<path d="M163.495 324.182L160.375 321.843L157.703 319.084" stroke="#263238" stroke-width="0.5" stroke-linecap="round" stroke-linejoin="round"/>
<path d="M160.375 321.843L164.015 317.756" stroke="#263238" stroke-width="0.5" stroke-linecap="round" stroke-linejoin="round"/>
<path d="M167.9 324.977L163.914 323.056L165.055 325.93" stroke="#263238" stroke-width="0.5" stroke-linecap="round" stroke-linejoin="round"/>
<path d="M162.325 326.277L163.914 323.056L160.043 324.024" stroke="#263238" stroke-width="0.5" stroke-linecap="round" stroke-linejoin="round"/>
<path d="M167.813 323.114L163.914 323.056L160.13 322.392" stroke="#263238" stroke-width="0.5" stroke-linecap="round" stroke-linejoin="round"/>
<path d="M163.914 323.056L164.448 317.597" stroke="#263238" stroke-width="0.5" stroke-linecap="round" stroke-linejoin="round"/>
<path d="M171.828 321.164L167.481 321.958L170.095 323.605" stroke="#263238" stroke-width="0.5" stroke-linecap="round" stroke-linejoin="round"/>
<path d="M168.087 325.482L167.481 321.958L164.925 325.006" stroke="#263238" stroke-width="0.5" stroke-linecap="round" stroke-linejoin="round"/>
<path d="M170.658 319.705L167.481 321.958L164.029 323.648" stroke="#263238" stroke-width="0.5" stroke-linecap="round" stroke-linejoin="round"/>
<path d="M167.481 321.958L164.708 317.221" stroke="#263238" stroke-width="0.5" stroke-linecap="round" stroke-linejoin="round"/>
<path d="M172.781 315.777L169.719 318.969L172.796 318.767" stroke="#263238" stroke-width="0.5" stroke-linecap="round" stroke-linejoin="round"/>
<path d="M172.29 321.467L169.719 318.969L169.445 322.94" stroke="#263238" stroke-width="0.5" stroke-linecap="round" stroke-linejoin="round"/>
<path d="M170.976 315.286L169.719 318.969L167.914 322.363" stroke="#263238" stroke-width="0.5" stroke-linecap="round" stroke-linejoin="round"/>
<path d="M169.72 318.969L164.694 316.773" stroke="#263238" stroke-width="0.5" stroke-linecap="round" stroke-linejoin="round"/>
<path d="M160.101 309.061L164.087 310.982L162.946 308.108" stroke="#263238" stroke-width="0.5" stroke-linecap="round" stroke-linejoin="round"/>
<path d="M165.676 307.761L164.087 310.982L167.957 310" stroke="#263238" stroke-width="0.5" stroke-linecap="round" stroke-linejoin="round"/>
<path d="M160.202 310.924L164.087 310.982L167.871 311.632" stroke="#263238" stroke-width="0.5" stroke-linecap="round" stroke-linejoin="round"/>
<path d="M164.087 310.982L163.552 316.427" stroke="#263238" stroke-width="0.5" stroke-linecap="round" stroke-linejoin="round"/>
<path d="M156.173 312.86L160.52 312.08L157.906 310.433" stroke="#263238" stroke-width="0.5" stroke-linecap="round" stroke-linejoin="round"/>
<path d="M159.913 308.541L160.52 312.08L163.076 309.018" stroke="#263238" stroke-width="0.5" stroke-linecap="round" stroke-linejoin="round"/>
<path d="M157.342 314.318L160.52 312.08L163.971 310.376" stroke="#263238" stroke-width="0.5" stroke-linecap="round" stroke-linejoin="round"/>
<path d="M160.52 312.08L163.292 316.802" stroke="#263238" stroke-width="0.5" stroke-linecap="round" stroke-linejoin="round"/>
<path d="M156.259 318.102L158.917 315.329L156.23 315.503" stroke="#263238" stroke-width="0.5" stroke-linecap="round" stroke-linejoin="round"/>
<path d="M156.678 313.148L158.917 315.329L159.148 311.863" stroke="#263238" stroke-width="0.5" stroke-linecap="round" stroke-linejoin="round"/>
<path d="M157.819 318.521L158.916 315.329L160.476 312.369" stroke="#263238" stroke-width="0.5" stroke-linecap="round" stroke-linejoin="round"/>
<path d="M158.917 315.315L163.278 317.221" stroke="#263238" stroke-width="0.5" stroke-linecap="round" stroke-linejoin="round"/>
<path d="M158.339 322.377L158.859 318.564L156.808 320.283" stroke="#263238" stroke-width="0.5" stroke-linecap="round" stroke-linejoin="round"/>
<path d="M155.782 318.117L158.859 318.564L157.024 315.633" stroke="#263238" stroke-width="0.5" stroke-linecap="round" stroke-linejoin="round"/>
<path d="M159.87 321.799L158.859 318.564L158.396 315.257" stroke="#263238" stroke-width="0.5" stroke-linecap="round" stroke-linejoin="round"/>
<path d="M158.859 318.564L163.509 317.539" stroke="#263238" stroke-width="0.5" stroke-linecap="round" stroke-linejoin="round"/>
<path d="M162.556 324.601L160.736 321.222L160.072 323.821" stroke="#263238" stroke-width="0.5" stroke-linecap="round" stroke-linejoin="round"/>
<path d="M157.978 322.666L160.736 321.222L157.516 319.922" stroke="#263238" stroke-width="0.5" stroke-linecap="round" stroke-linejoin="round"/>
<path d="M163.437 323.244L160.736 321.222L158.396 318.824" stroke="#263238" stroke-width="0.5" stroke-linecap="round" stroke-linejoin="round"/>
<path d="M160.736 321.222L163.899 317.654" stroke="#263238" stroke-width="0.5" stroke-linecap="round" stroke-linejoin="round"/>
<path d="M167.264 323.937L163.798 322.262L164.795 324.76" stroke="#263238" stroke-width="0.5" stroke-linecap="round" stroke-linejoin="round"/>
<path d="M162.426 325.063L163.798 322.262L160.448 323.114" stroke="#263238" stroke-width="0.5" stroke-linecap="round" stroke-linejoin="round"/>
<path d="M167.192 322.319L163.798 322.262L160.505 321.698" stroke="#263238" stroke-width="0.5" stroke-linecap="round" stroke-linejoin="round"/>
<path d="M163.798 322.262L164.26 317.525" stroke="#263238" stroke-width="0.5" stroke-linecap="round" stroke-linejoin="round"/>
<path d="M170.687 320.615L166.903 321.308L169.171 322.738" stroke="#263238" stroke-width="0.5" stroke-linecap="round" stroke-linejoin="round"/>
<path d="M167.423 324.37L166.903 321.308L164.679 323.966" stroke="#263238" stroke-width="0.5" stroke-linecap="round" stroke-linejoin="round"/>
<path d="M169.662 319.359L166.903 321.308L163.899 322.782" stroke="#263238" stroke-width="0.5" stroke-linecap="round" stroke-linejoin="round"/>
<path d="M166.903 321.308L164.491 317.192" stroke="#263238" stroke-width="0.5" stroke-linecap="round" stroke-linejoin="round"/>
<path d="M171.496 315.936L168.838 318.709L171.525 318.535" stroke="#263238" stroke-width="0.5" stroke-linecap="round" stroke-linejoin="round"/>
<path d="M171.077 320.89L168.839 318.709L168.607 322.161" stroke="#263238" stroke-width="0.5" stroke-linecap="round" stroke-linejoin="round"/>
<path d="M169.936 315.503L168.838 318.709L167.279 321.669" stroke="#263238" stroke-width="0.5" stroke-linecap="round" stroke-linejoin="round"/>
<path d="M168.838 318.709L164.477 316.802" stroke="#263238" stroke-width="0.5" stroke-linecap="round" stroke-linejoin="round"/>
<path d="M160.491 310.101L163.957 311.776L162.96 309.278" stroke="#263238" stroke-width="0.5" stroke-linecap="round" stroke-linejoin="round"/>
<path d="M165.329 308.975L163.957 311.776L167.307 310.924" stroke="#263238" stroke-width="0.5" stroke-linecap="round" stroke-linejoin="round"/>
<path d="M160.577 311.719L163.957 311.776L167.25 312.34" stroke="#263238" stroke-width="0.5" stroke-linecap="round" stroke-linejoin="round"/>
<path d="M163.957 311.762L163.495 316.514" stroke="#263238" stroke-width="0.5" stroke-linecap="round" stroke-linejoin="round"/>
<path d="M157.082 313.408L160.852 312.73L158.584 311.3" stroke="#263238" stroke-width="0.5" stroke-linecap="round" stroke-linejoin="round"/>
<path d="M160.332 309.653L160.852 312.73L163.076 310.072" stroke="#263238" stroke-width="0.5" stroke-linecap="round" stroke-linejoin="round"/>
<path d="M158.093 314.679L160.852 312.73L163.856 311.257" stroke="#263238" stroke-width="0.5" stroke-linecap="round" stroke-linejoin="round"/>
<path d="M160.852 312.73L163.264 316.831" stroke="#263238" stroke-width="0.5" stroke-linecap="round" stroke-linejoin="round"/>
<path d="M158.194 317.828L160.173 315.748L158.18 315.878" stroke="#263238" stroke-width="0.5" stroke-linecap="round" stroke-linejoin="round"/>
<path d="M158.512 314.131L160.173 315.748L160.346 313.177" stroke="#263238" stroke-width="0.5" stroke-linecap="round" stroke-linejoin="round"/>
<path d="M159.364 318.146L160.173 315.748L161.343 313.553" stroke="#263238" stroke-width="0.5" stroke-linecap="round" stroke-linejoin="round"/>
<path d="M160.173 315.748L163.423 317.178" stroke="#263238" stroke-width="0.5" stroke-linecap="round" stroke-linejoin="round"/>
<path d="M159.754 321.005L160.144 318.174L158.613 319.445" stroke="#263238" stroke-width="0.5" stroke-linecap="round" stroke-linejoin="round"/>
<path d="M157.848 317.842L160.144 318.174L158.772 315.979" stroke="#263238" stroke-width="0.5" stroke-linecap="round" stroke-linejoin="round"/>
<path d="M160.881 320.572L160.144 318.174L159.783 315.705" stroke="#263238" stroke-width="0.5" stroke-linecap="round" stroke-linejoin="round"/>
<path d="M160.144 318.174L163.61 317.409" stroke="#263238" stroke-width="0.5" stroke-linecap="round" stroke-linejoin="round"/>
<path d="M162.888 322.666L161.531 320.139L161.04 322.088" stroke="#263238" stroke-width="0.5" stroke-linecap="round" stroke-linejoin="round"/>
<path d="M159.48 321.222L161.53 320.139L159.133 319.185" stroke="#263238" stroke-width="0.5" stroke-linecap="round" stroke-linejoin="round"/>
<path d="M163.553 321.655L161.531 320.139L159.798 318.362" stroke="#263238" stroke-width="0.5" stroke-linecap="round" stroke-linejoin="round"/>
<path d="M161.531 320.139L163.885 317.496" stroke="#263238" stroke-width="0.5" stroke-linecap="round" stroke-linejoin="round"/>
<path d="M166.398 322.175L163.827 320.918L164.563 322.781" stroke="#263238" stroke-width="0.5" stroke-linecap="round" stroke-linejoin="round"/>
<path d="M162.802 323.013L163.827 320.918L161.314 321.554" stroke="#263238" stroke-width="0.5" stroke-linecap="round" stroke-linejoin="round"/>
<path d="M166.34 320.962L163.827 320.918L161.372 320.5" stroke="#263238" stroke-width="0.5" stroke-linecap="round" stroke-linejoin="round"/>
<path d="M163.827 320.918L164.174 317.395" stroke="#263238" stroke-width="0.5" stroke-linecap="round" stroke-linejoin="round"/>
<path d="M168.954 319.705L166.138 320.211L167.827 321.28" stroke="#263238" stroke-width="0.5" stroke-linecap="round" stroke-linejoin="round"/>
<path d="M166.528 322.507L166.138 320.211L164.477 322.189" stroke="#263238" stroke-width="0.5" stroke-linecap="round" stroke-linejoin="round"/>
<path d="M168.189 318.767L166.138 320.211L163.899 321.308" stroke="#263238" stroke-width="0.5" stroke-linecap="round" stroke-linejoin="round"/>
<path d="M166.123 320.211L164.332 317.149" stroke="#263238" stroke-width="0.5" stroke-linecap="round" stroke-linejoin="round"/>
<path d="M169.561 316.21L167.582 318.276L169.575 318.146" stroke="#263238" stroke-width="0.5" stroke-linecap="round" stroke-linejoin="round"/>
<path d="M169.243 319.893L167.582 318.276L167.409 320.846" stroke="#263238" stroke-width="0.5" stroke-linecap="round" stroke-linejoin="round"/>
<path d="M168.391 315.893L167.582 318.276L166.412 320.485" stroke="#263238" stroke-width="0.5" stroke-linecap="round" stroke-linejoin="round"/>
<path d="M167.582 318.276L164.332 316.86" stroke="#263238" stroke-width="0.5" stroke-linecap="round" stroke-linejoin="round"/>
<path d="M161.357 311.863L163.942 313.105L163.191 311.242" stroke="#263238" stroke-width="0.5" stroke-linecap="round" stroke-linejoin="round"/>
<path d="M164.968 311.025L163.942 313.105L166.441 312.47" stroke="#263238" stroke-width="0.5" stroke-linecap="round" stroke-linejoin="round"/>
<path d="M161.415 313.062L163.942 313.105L166.383 313.538" stroke="#263238" stroke-width="0.5" stroke-linecap="round" stroke-linejoin="round"/>
<path d="M163.928 313.105L163.596 316.644" stroke="#263238" stroke-width="0.5" stroke-linecap="round" stroke-linejoin="round"/>
<path d="M158.815 314.333L161.632 313.813L159.927 312.758" stroke="#263238" stroke-width="0.5" stroke-linecap="round" stroke-linejoin="round"/>
<path d="M161.227 311.531L161.632 313.813L163.278 311.834" stroke="#263238" stroke-width="0.5" stroke-linecap="round" stroke-linejoin="round"/>
<path d="M159.566 315.272L161.632 313.813L163.856 312.715" stroke="#263238" stroke-width="0.5" stroke-linecap="round" stroke-linejoin="round"/>
<path d="M161.632 313.813L163.422 316.875" stroke="#263238" stroke-width="0.5" stroke-linecap="round" stroke-linejoin="round"/>
<path d="M158.873 371.914C160.357 373.382 162.107 374.554 164.029 375.366C166.285 375.989 168.59 376.419 170.918 376.651C170.918 376.651 176.089 383.107 182.978 383.107C189.867 383.107 192.019 381.389 190.3 376.218C188.581 371.048 182.111 366.325 179.959 363.74C177.807 361.155 169.633 358.57 165.762 357.718C161.892 356.865 153.27 361.588 151.984 365.459C151.588 366.522 151.459 367.667 151.607 368.793C151.756 369.918 152.178 370.99 152.836 371.914" fill="#ADADAD"/>
<path d="M158.873 371.914C160.357 373.382 162.107 374.554 164.029 375.366C166.285 375.989 168.59 376.419 170.918 376.651C170.918 376.651 176.089 383.107 182.978 383.107C189.867 383.107 192.019 381.389 190.3 376.218C188.581 371.048 182.111 366.325 179.959 363.74C177.807 361.155 169.633 358.57 165.762 357.718C161.892 356.865 153.27 361.588 151.984 365.459C151.588 366.522 151.459 367.667 151.607 368.793C151.756 369.918 152.178 370.99 152.836 371.914" stroke="#263238" stroke-linecap="round" stroke-linejoin="round"/>
<path d="M182.978 383.107L187.715 393.881" stroke="#263238" stroke-linecap="round" stroke-linejoin="round"/>
<path d="M143.377 445.541C143.377 445.541 139.492 435.201 139.925 430.045C140.358 424.889 148.099 415.4 148.099 415.4L161.877 399.037L172.651 385.259C173.605 384.617 174.729 384.273 175.879 384.273C177.029 384.273 178.153 384.617 179.107 385.259C182.977 387.411 197.622 408.511 198.474 414.967C199.326 421.423 191.585 427.46 189 429.178C187.873 429.929 184.667 427.893 184.667 427.893C184.667 427.893 189.404 434.782 183.815 439.086C178.226 443.39 175.15 444.242 175.15 444.242C175.15 444.242 172.998 449.412 168.275 450.712C166.391 451.238 164.417 451.355 162.484 451.056C160.552 450.757 158.705 450.049 157.068 448.979C155.26 447.951 153.763 446.454 152.735 444.646C152.735 444.646 151.883 446.798 146.279 442.927" fill="#ADADAD"/>
<path d="M143.377 445.541C143.377 445.541 139.492 435.201 139.925 430.045C140.358 424.889 148.099 415.4 148.099 415.4L161.877 399.037L172.651 385.259C173.605 384.617 174.729 384.273 175.879 384.273C177.029 384.273 178.153 384.617 179.107 385.259C182.977 387.411 197.622 408.511 198.474 414.967C199.326 421.423 191.585 427.46 189 429.178C187.873 429.929 184.667 427.893 184.667 427.893C184.667 427.893 189.404 434.782 183.815 439.086C178.226 443.39 175.15 444.242 175.15 444.242C175.15 444.242 172.998 449.412 168.275 450.712C166.391 451.238 164.417 451.355 162.484 451.056C160.552 450.757 158.705 450.049 157.068 448.979C155.26 447.951 153.763 446.454 152.735 444.646C152.735 444.646 151.883 446.798 146.279 442.927" stroke="#263238" stroke-linecap="round" stroke-linejoin="round"/>
<path d="M148.099 415.4C148.099 415.4 150.251 413.682 154.569 417.119C158.888 420.556 173.012 442.09 173.012 442.09" stroke="#263238" stroke-linecap="round" stroke-linejoin="round"/>
<path d="M161.877 399.037C161.877 399.037 166.614 397.752 170.918 402.489C175.222 407.226 184.696 427.893 184.696 427.893" stroke="#263238" stroke-linecap="round" stroke-linejoin="round"/>
<path d="M259.97 615.441C248.604 599.092 239.259 528.469 239.259 528.469C239.259 528.469 229.482 534.665 202.287 527.762C175.092 520.858 167.438 502.878 167.438 502.878C167.438 502.878 160.982 553.585 171.655 615.441" fill="white"/>
<path d="M259.97 615.441C248.604 599.092 239.259 528.469 239.259 528.469C239.259 528.469 229.482 534.665 202.287 527.762C175.092 520.858 167.438 502.878 167.438 502.878C167.438 502.878 160.982 553.585 171.655 615.441" stroke="#263238" stroke-linecap="round" stroke-linejoin="round"/>
<path d="M166.224 567.348C185.331 571.421 219.228 571.681 245.426 566.236C241.628 546.378 239.259 528.469 239.259 528.469C239.259 528.469 229.482 534.665 202.287 527.762C175.092 520.858 167.437 502.878 167.437 502.878C167.437 502.878 164.072 529.35 166.224 567.348Z" fill="white" stroke="#263238" stroke-linecap="round" stroke-linejoin="round"/>
<path d="M61.8639 295.341L56.5203 292.77L58.0656 296.612" stroke="#263238" stroke-width="0.5" stroke-linecap="round" stroke-linejoin="round"/>
<path d="M54.3972 297.089L56.5203 292.77L51.3354 294.07" stroke="#263238" stroke-width="0.5" stroke-linecap="round" stroke-linejoin="round"/>
<path d="M61.7484 292.843L56.5202 292.77L51.4365 291.889" stroke="#263238" stroke-width="0.5" stroke-linecap="round" stroke-linejoin="round"/>
<path d="M56.5203 292.77L57.2424 285.448" stroke="#263238" stroke-width="0.5" stroke-linecap="round" stroke-linejoin="round"/>
<path d="M89.1023 288.553L94.446 291.138L92.9006 287.282" stroke="#263238" stroke-width="0.5" stroke-linecap="round" stroke-linejoin="round"/>
<path d="M96.5691 286.82L94.446 291.138L99.6309 289.824" stroke="#263238" stroke-width="0.5" stroke-linecap="round" stroke-linejoin="round"/>
<path d="M89.2178 291.052L94.4459 291.138L99.5296 292.019" stroke="#263238" stroke-width="0.5" stroke-linecap="round" stroke-linejoin="round"/>
<path d="M94.446 291.138L93.7239 298.461" stroke="#263238" stroke-width="0.5" stroke-linecap="round" stroke-linejoin="round"/>
<path d="M26.8992 288.986L22.9131 287.066L24.0685 289.94" stroke="#263238" stroke-width="0.5" stroke-linecap="round" stroke-linejoin="round"/>
<path d="M21.3244 290.286L22.913 287.066L19.0425 288.033" stroke="#263238" stroke-width="0.5" stroke-linecap="round" stroke-linejoin="round"/>
<path d="M26.8125 287.123L22.913 287.066L19.1292 286.416" stroke="#263238" stroke-width="0.5" stroke-linecap="round" stroke-linejoin="round"/>
<path d="M22.9131 287.066L23.4475 281.606" stroke="#263238" stroke-width="0.5" stroke-linecap="round" stroke-linejoin="round"/>
<path d="M112.21 285.231L116.196 287.152L115.041 284.278" stroke="#263238" stroke-width="0.5" stroke-linecap="round" stroke-linejoin="round"/>
<path d="M117.77 283.932L116.196 287.152L120.052 286.17" stroke="#263238" stroke-width="0.5" stroke-linecap="round" stroke-linejoin="round"/>
<path d="M112.297 287.094L116.196 287.152L119.98 287.802" stroke="#263238" stroke-width="0.5" stroke-linecap="round" stroke-linejoin="round"/>
<path d="M116.182 287.152L115.662 292.597" stroke="#263238" stroke-width="0.5" stroke-linecap="round" stroke-linejoin="round"/>
<path d="M135.217 272.031L139.188 273.952L138.047 271.078" stroke="#263238" stroke-width="0.5" stroke-linecap="round" stroke-linejoin="round"/>
<path d="M140.777 270.731L139.188 273.952L143.059 272.97" stroke="#263238" stroke-width="0.5" stroke-linecap="round" stroke-linejoin="round"/>
<path d="M135.303 273.894L139.188 273.952L142.987 274.602" stroke="#263238" stroke-width="0.5" stroke-linecap="round" stroke-linejoin="round"/>
<path d="M139.188 273.952L138.668 279.397" stroke="#263238" stroke-width="0.5" stroke-linecap="round" stroke-linejoin="round"/>
<path d="M114.492 312.961L118.839 312.181L116.225 310.534" stroke="#263238" stroke-width="0.5" stroke-linecap="round" stroke-linejoin="round"/>
<path d="M118.232 308.642L118.839 312.181L121.395 309.119" stroke="#263238" stroke-width="0.5" stroke-linecap="round" stroke-linejoin="round"/>
<path d="M115.662 314.419L118.839 312.181L122.291 310.491" stroke="#263238" stroke-width="0.5" stroke-linecap="round" stroke-linejoin="round"/>
<path d="M118.839 312.181L121.612 316.903" stroke="#263238" stroke-width="0.5" stroke-linecap="round" stroke-linejoin="round"/>
<path d="M137.137 300.309L141.485 299.529L138.871 297.883" stroke="#263238" stroke-width="0.5" stroke-linecap="round" stroke-linejoin="round"/>
<path d="M140.878 295.991L141.485 299.529L144.041 296.468" stroke="#263238" stroke-width="0.5" stroke-linecap="round" stroke-linejoin="round"/>
<path d="M138.307 301.768L141.485 299.529L144.936 297.825" stroke="#263238" stroke-width="0.5" stroke-linecap="round" stroke-linejoin="round"/>
<path d="M141.485 299.529L144.258 304.252" stroke="#263238" stroke-width="0.5" stroke-linecap="round" stroke-linejoin="round"/>
<path d="M70.5872 308.354L74.9487 307.559L72.3347 305.913" stroke="#263238" stroke-width="0.5" stroke-linecap="round" stroke-linejoin="round"/>
<path d="M74.3276 304.035L74.9487 307.559L77.505 304.512" stroke="#263238" stroke-width="0.5" stroke-linecap="round" stroke-linejoin="round"/>
<path d="M71.7571 309.812L74.9488 307.559L78.4006 305.87" stroke="#263238" stroke-width="0.5" stroke-linecap="round" stroke-linejoin="round"/>
<path d="M74.9487 307.559L77.7217 312.296" stroke="#263238" stroke-width="0.5" stroke-linecap="round" stroke-linejoin="round"/>
<path d="M263.999 615.672C263.999 615.672 290.717 514.576 295.05 490.746C296.298 483.773 298.919 477.118 302.762 471.167C306.605 465.217 311.593 460.09 317.436 456.084C323.082 453.786 328.871 451.856 334.767 450.307C343.432 448.141 362.929 443.808 378.816 434.421C394.702 425.033 433.928 362.484 467.78 389.491C487.899 405.594 503.135 426.131 519.022 454.293C534.908 482.456 576.661 605.938 576.661 605.938" fill="white"/>
<path d="M263.999 615.672C263.999 615.672 290.717 514.576 295.05 490.746C296.298 483.773 298.919 477.118 302.762 471.167C306.605 465.217 311.593 460.09 317.436 456.084C323.082 453.786 328.871 451.856 334.767 450.307C343.432 448.141 362.929 443.808 378.816 434.421C394.702 425.033 433.928 362.484 467.78 389.491C487.899 405.594 503.135 426.131 519.022 454.293C534.908 482.456 576.661 605.938 576.661 605.938" stroke="#263238" stroke-linecap="round" stroke-linejoin="round"/>
<path d="M293.866 217.627C293.866 217.627 285.316 232.575 284.608 241.818C283.901 251.061 284.608 258.181 278.918 270.284C273.228 282.386 254.019 290.2 254.019 295.182C254.019 300.165 262.555 310.058 262.555 310.058C262.555 310.058 261.11 318.593 256.864 320.023C252.618 321.453 258.309 330.696 258.309 330.696C258.309 330.696 254.756 334.249 258.309 339.231C261.861 344.214 262.641 340.676 262.641 348.474C262.641 356.273 256.951 365.56 260.504 371.958C264.057 378.356 269.761 379.785 279.005 379.078C288.248 378.37 301.78 374.745 306.748 377.634C311.716 380.522 333.322 404.569 333.322 404.569L424.136 357.371C424.136 357.371 403.512 338.596 393.547 294.446C383.582 250.295 364.373 194.793 338.753 189.854C313.132 184.915 294.573 199.819 293.866 217.627Z" fill="#ADADAD" stroke="#263238" stroke-linecap="round" stroke-linejoin="round"/>
<path d="M258.222 330.739C261.202 331.111 264.218 331.087 267.191 330.667" stroke="#263238" stroke-linecap="round" stroke-linejoin="round"/>
<path d="M266.887 307.169C266.887 307.169 274.109 314.391 279.886 310.78C285.662 307.169 282.774 302.115 282.774 302.115" stroke="#263238" stroke-linecap="round" stroke-linejoin="round"/>
<path d="M302.618 261.532C302.618 261.532 300.379 269.85 299.108 273.374" stroke="#263238" stroke-linecap="round" stroke-linejoin="round"/>
<path d="M296.22 272.739C296.22 272.739 305.824 276.248 313.175 275.627L317.017 274.992C314.591 276.469 311.848 277.346 309.016 277.548C303.585 278.184 299.426 277.548 300.35 277.23L301.318 275.627C301.318 275.627 300.033 276.263 296.191 275.945C292.349 275.627 291.743 273.057 296.22 272.739Z" fill="#263238" stroke="#263238" stroke-linecap="round" stroke-linejoin="round"/>
<path d="M297.217 250.671C297.217 250.671 298.805 241.702 309.68 243.305C320.555 244.908 321.841 250.671 321.841 250.671C321.841 250.671 314.157 246.194 309.68 246.829C305.203 247.465 298.776 255.177 297.217 250.671Z" fill="#263238"/>
<path d="M344.63 352.634C342.637 353.37 340.543 354.078 338.377 354.829" stroke="#263238" stroke-linecap="round" stroke-linejoin="round"/>
<path d="M378.093 336.054C378.093 336.054 368.908 342.827 351.332 350.034" stroke="#263238" stroke-linecap="round" stroke-linejoin="round"/>
<path d="M295.05 612.062C295.05 612.062 321.768 491.468 328.267 464.028C334.766 436.587 353.542 444.53 357.152 445.253C360.763 445.975 344.876 614.95 344.876 617.839" fill="#677ABC"/>
<path d="M295.05 612.062C295.05 612.062 321.768 491.468 328.267 464.028C334.766 436.587 353.542 444.53 357.152 445.253C360.763 445.975 344.876 614.95 344.876 617.839" stroke="#263238" stroke-linecap="round" stroke-linejoin="round"/>
<path d="M320.324 620.727C320.324 620.727 325.379 545.627 331.878 511.687C338.377 477.748 341.988 455.362 341.988 455.362L403.368 413.479C403.368 413.479 388.203 559.347 395.424 616.394" fill="#677ABC"/>
<path d="M320.324 620.727C320.324 620.727 325.379 545.627 331.878 511.687C338.377 477.748 341.988 455.362 341.988 455.362L403.368 413.479C403.368 413.479 388.203 559.347 395.424 616.394" stroke="#263238" stroke-linecap="round" stroke-linejoin="round"/>
<path d="M333.192 470.7L335.431 471.942L338.464 473.632C338.464 473.632 377.631 447.91 391.669 439.721C405.707 431.532 432.599 402.879 432.599 402.879L333.192 470.7Z" fill="#263238" stroke="#263238" stroke-linecap="round" stroke-linejoin="round"/>
<path d="M325.379 560.979C324.628 568.345 323.935 575.638 323.343 582.484L393.865 550.552C394.096 542.71 394.399 534.665 394.789 526.707L325.379 560.979Z" fill="white" stroke="#263238" stroke-linecap="round" stroke-linejoin="round"/>
<path d="M393.547 565.312L322.274 595.077C321.985 598.616 321.725 601.909 321.494 604.869L393.489 580.317C393.46 575.494 393.475 570.468 393.547 565.312Z" fill="white" stroke="#263238" stroke-linecap="round" stroke-linejoin="round"/>
<path d="M415.788 360.606C415.788 360.606 297.736 406.821 292.855 417.668C287.973 428.514 302.632 434.652 302.632 434.652C302.632 434.652 297.043 446.885 303.326 453.672C309.608 460.46 322.895 475.408 334.766 470.657C346.638 465.905 415.788 414.953 438.852 399.326C461.917 383.699 468.878 376.911 464.69 369.445C460.502 361.978 438.145 346.279 415.788 360.606Z" fill="#677ABC" stroke="#263238" stroke-linecap="round" stroke-linejoin="round"/>
<path d="M427.992 355.479C423.652 356.413 419.518 358.126 415.788 360.534L413.217 361.559L376.49 443.303C383.712 438.263 391.178 432.948 398.472 427.748L427.992 355.479Z" fill="white" stroke="#263238" stroke-linecap="round" stroke-linejoin="round"/>
<path d="M375.089 377.013L328.99 471.465C330.957 471.614 332.933 471.313 334.766 470.584C338.806 468.631 342.692 466.377 346.393 463.84L394.24 369.156C388.521 371.467 382.007 374.138 375.089 377.013Z" fill="white" stroke="#263238" stroke-linecap="round" stroke-linejoin="round"/>
<path d="M443.849 355.854L421.42 411.4C428.396 406.446 434.419 402.214 438.751 399.254C461.859 383.714 468.878 376.839 464.747 369.373C462.35 365.199 454.349 358.497 443.849 355.854Z" fill="white" stroke="#263238" stroke-linecap="round" stroke-linejoin="round"/>
<path d="M375.609 401.406C361.384 410.071 348.588 419.069 342.392 426.434" stroke="#263238" stroke-linecap="round" stroke-linejoin="round"/>
<path d="M436.758 368.694C436.758 368.694 408.466 382.067 382.253 397.434" stroke="#263238" stroke-linecap="round" stroke-linejoin="round"/>
<path d="M334.463 427.546C332.757 429.532 331.221 431.658 329.871 433.901" stroke="#263238" stroke-linecap="round" stroke-linejoin="round"/>
<path d="M354.321 408.771C348.851 413.145 343.647 417.842 338.738 422.838" stroke="#263238" stroke-linecap="round" stroke-linejoin="round"/>
<path d="M330.578 425.077L321.494 437.295" stroke="#263238" stroke-linecap="round" stroke-linejoin="round"/>
<path d="M433.711 623.933C433.711 623.933 421.435 560.387 421.435 512.727C421.435 465.067 421.435 439.071 444.543 418.13C467.651 397.188 479.204 400.077 495.813 415.964C512.422 431.85 527.586 468.678 547.083 529.336C566.581 589.994 575.232 616.394 575.232 616.394" fill="white"/>
<path d="M433.711 623.933C433.711 623.933 421.435 560.387 421.435 512.727C421.435 465.067 421.435 439.071 444.543 418.13C467.651 397.188 479.204 400.077 495.813 415.964C512.422 431.85 527.586 468.678 547.083 529.336C566.581 589.994 575.232 616.394 575.232 616.394" stroke="#263238" stroke-linecap="round" stroke-linejoin="round"/>
<path d="M565.916 286.358C565.136 273.057 555.806 274.631 565.136 265.243C574.466 255.856 576.084 239.435 572.95 230.827C569.816 222.219 566.696 217.526 566.696 207.358C566.696 197.191 562.002 184.684 554.174 181.55C546.347 178.416 540.887 171.44 540.887 159.655C540.887 147.87 536.194 149.546 528.366 145.574C520.538 141.602 519.773 133.847 511.945 124.459C504.117 115.072 494.744 117.426 488.491 118.206C482.237 118.986 486.137 109.54 473.63 108.096C461.122 106.652 459.548 112.01 456.414 112.01C453.28 112.01 443.127 99.4885 435.3 99.4885C427.472 99.4885 426.706 104.977 422.865 104.977C419.023 104.977 412.755 89.3355 397.836 91.6896C382.917 94.0437 386.109 100.355 380.621 101.077C375.133 101.799 368.894 93.2494 359.506 96.3834C350.119 99.5173 350.913 112.804 343.865 112.024L336.832 111.245C336.832 111.245 318.836 101.135 311.803 113.584C304.77 126.033 318.836 135.479 310.243 138.613C301.65 141.747 283.655 129.225 281.359 143.307C279.062 157.388 290.746 156.593 288.392 163.641C286.038 170.689 277.445 169.895 275.885 180.062C274.325 190.23 284.55 188.728 286.832 191.01C289.114 193.291 276.723 201.119 281.359 209.005C282.679 211.282 284.486 213.239 286.651 214.737C288.815 216.235 291.284 217.237 293.88 217.67C297.68 211.594 302.699 206.372 308.621 202.335C314.542 198.298 321.237 195.533 328.282 194.216C328.282 194.216 322.028 206.723 327.502 216.11C332.976 225.498 349.396 222.364 346.277 231.751C343.157 241.139 328.989 254.296 338.319 265.287C347.649 276.277 361.008 265.287 361.008 278.574C361.008 291.86 352.343 295.009 357.094 302.042C361.846 309.076 368.042 301.262 369.601 309.076C371.161 316.889 361.008 337.238 368.821 345.052C373.255 349.485 378.686 347.94 382.989 347.666C385.329 348.965 387.51 350.684 387.51 352.591C387.51 356.721 376.519 362.209 385.228 369.994C393.937 377.778 404.436 369.502 407.874 377.07C411.311 384.638 409.029 390.588 428.252 392.885C447.474 395.181 458.003 381.432 465.325 384.219C472.647 387.007 482.266 394.329 491.422 387.888C493.146 386.681 494.782 385.354 496.318 383.916C498.75 383.453 500.951 382.174 502.558 380.291C503.51 379.035 504.314 377.673 504.955 376.233C506.026 375.753 507.189 375.511 508.363 375.525C514.761 375.525 526.214 379.641 526.214 370.499C526.209 369.374 526.281 368.249 526.431 367.134C530.836 365.401 533.84 361.631 533.84 358.469C533.844 358.196 533.81 357.923 533.739 357.66C535.301 357.061 536.923 356.63 538.577 356.374C544.975 355.306 549.149 352.042 549.842 343.059C554.983 340.791 558.854 337.83 559.663 333.44C561.222 324.775 556.529 317.799 558.088 313.105C559.648 308.411 566.696 299.645 565.916 286.358Z" fill="#263238" stroke="#263238" stroke-linecap="round" stroke-linejoin="round"/>
</svg>
