<svg width="44" height="44" viewBox="0 0 44 44" fill="none" xmlns="http://www.w3.org/2000/svg">
<path d="M22 11C15.9247 11 11 15.9247 11 22C11 28.0753 15.9247 33 22 33C28.0753 33 33 28.0753 33 22C33 15.9247 28.0753 11 22 11ZM25.65 26.8613C25.477 27.0334 25.2956 27.2139 25.1483 27.3616C25.0157 27.4947 24.9221 27.6588 24.8746 27.8367C24.8077 28.0877 24.7535 28.3414 24.6631 28.5849L23.8917 30.6629C23.2814 30.796 22.6498 30.871 22 30.871V29.6565C22.075 29.0968 21.6611 28.0482 20.9962 27.3833C20.7301 27.1172 20.5806 26.7562 20.5806 26.3796V24.9598C20.5806 24.4435 20.3025 23.9689 19.8506 23.7192C19.2132 23.3666 18.3066 22.8738 17.6856 22.5611C17.1764 22.3047 16.7054 21.9783 16.2818 21.5964L16.2463 21.5644C15.9434 21.291 15.6744 20.9821 15.4452 20.6445C15.0292 20.0337 14.3515 19.0291 13.911 18.3762C14.819 16.3581 16.4552 14.7373 18.4884 13.8569L19.5534 14.3896C20.0253 14.6256 20.5806 14.2827 20.5806 13.7549V13.2537C20.935 13.1965 21.2956 13.1601 21.6625 13.1463L22.9177 14.4016C23.1949 14.6788 23.1949 15.1281 22.9177 15.4053L22.7097 15.6129L22.251 16.0715C22.1127 16.2099 22.1127 16.4348 22.251 16.5732L22.4591 16.7812C22.5975 16.9196 22.5975 17.1445 22.4591 17.2829L22.1042 17.6377C22.0376 17.7042 21.9473 17.7415 21.8532 17.7415H21.4544C21.3622 17.7415 21.2735 17.7774 21.2069 17.8422L20.7669 18.2702C20.713 18.3227 20.6771 18.391 20.6646 18.4652C20.652 18.5395 20.6633 18.6158 20.6969 18.6831L21.3883 20.0666C21.5063 20.3025 21.3347 20.5802 21.0712 20.5802H20.821C20.7354 20.5802 20.6529 20.5492 20.5886 20.4933L20.177 20.1358C20.0839 20.055 19.9713 19.9998 19.8504 19.9757C19.7294 19.9516 19.6043 19.9594 19.4873 19.9983L18.1048 20.4591C17.9992 20.4943 17.9074 20.5618 17.8424 20.6521C17.7773 20.7424 17.7423 20.8508 17.7424 20.9621C17.7424 21.163 17.8559 21.3462 18.0356 21.4362L18.527 21.682C18.9444 21.8909 19.4048 21.9996 19.8714 21.9996C20.338 21.9996 20.8734 23.21 21.2908 23.4189H24.2515C24.628 23.4189 24.9886 23.5684 25.2552 23.8345L25.8624 24.4417C26.1161 24.6955 26.2586 25.0396 26.2585 25.3985C26.2584 25.6704 26.2046 25.9396 26.1002 26.1906C25.9957 26.4416 25.8427 26.6696 25.65 26.8613V26.8613ZM29.496 22.8095C29.2392 22.7452 29.0152 22.5877 28.8683 22.3673L28.0708 21.171C27.9542 20.9962 27.8919 20.7908 27.8919 20.5806C27.8919 20.3705 27.9542 20.1651 28.0708 19.9903L28.9398 18.6871C29.0427 18.5332 29.1837 18.4081 29.3496 18.3256L29.9253 18.0378C30.525 19.2318 30.871 20.5749 30.871 22C30.871 22.3846 30.8381 22.7611 30.7902 23.1328L29.496 22.8095Z" fill="#677ABC"/>
<circle cx="22" cy="22" r="21" stroke="#677ABC" stroke-width="2"/>
<circle cx="22" cy="22" r="17" stroke="#677ABC" stroke-width="2"/>
</svg>
